<?xml version="1.0" encoding="UTF-8" standalone="no"?>
<!-- Created with Inkscape (http://www.inkscape.org/) -->

<svg
   width="210mm"
   height="297mm"
   viewBox="0 0 210 297"
   version="1.1"
   id="svg5"
   inkscape:version="1.1.2 (b8e25be833, 2022-02-05)"
   sodipodi:docname="drawing.svg"
   xmlns:inkscape="http://www.inkscape.org/namespaces/inkscape"
   xmlns:sodipodi="http://sodipodi.sourceforge.net/DTD/sodipodi-0.dtd"
   xmlns="http://www.w3.org/2000/svg"
   xmlns:svg="http://www.w3.org/2000/svg">
  <sodipodi:namedview
     id="namedview7"
     pagecolor="#ffffff"
     bordercolor="#999999"
     borderopacity="1"
     inkscape:pageshadow="0"
     inkscape:pageopacity="0"
     inkscape:pagecheckerboard="0"
     inkscape:document-units="mm"
     showgrid="false"
     inkscape:zoom="0.40043841"
     inkscape:cx="-721.70899"
     inkscape:cy="819.10224"
     inkscape:window-width="2560"
     inkscape:window-height="1377"
     inkscape:window-x="-8"
     inkscape:window-y="-8"
     inkscape:window-maximized="1"
     inkscape:current-layer="layer1" />
  <defs
     id="defs2">
    <filter
       style="color-interpolation-filters:sRGB;"
       inkscape:label="Drop Shadow"
       id="filter9024"
       x="-0.068916314"
       y="-0.074561076"
       width="1.1378326"
       height="1.1517662">
      <feFlood
         flood-opacity="0.498039"
         flood-color="rgb(0,0,0)"
         result="flood"
         id="feFlood9014" />
      <feComposite
         in="flood"
         in2="SourceGraphic"
         operator="in"
         result="composite1"
         id="feComposite9016" />
      <feGaussianBlur
         in="composite1"
         stdDeviation="28.1437"
         result="blur"
         id="feGaussianBlur9018" />
      <feOffset
         dx="0"
         dy="2.39521"
         result="offset"
         id="feOffset9020" />
      <feComposite
         in="SourceGraphic"
         in2="offset"
         operator="over"
         result="composite2"
         id="feComposite9022" />
    </filter>
  </defs>
  <g
     inkscape:label="Layer 1"
     inkscape:groupmode="layer"
     id="layer1"
     style="display:inline">
    <rect
       style="opacity:1;mix-blend-mode:normal;fill:#00a2ff;fill-opacity:0.570281;stroke-width:0.264583"
       id="rect31"
       width="147.92043"
       height="145.12947"
       x="29.73304"
       y="45.590649"
       rx="13.214683"
       ry="13.214683"
       inkscape:export-filename="S:\Descargas\logo_completo.png"
       inkscape:export-xdpi="96"
       inkscape:export-ydpi="96" />
    <g
       id="g6659"
       transform="matrix(0.11054012,0,0,0.11054012,47.964125,62.929406)"
       style="fill:#ffffff;filter:url(#filter9024)"
       inkscape:export-filename="S:\Descargas\logo_completo.png"
       inkscape:export-xdpi="96"
       inkscape:export-ydpi="96">
      <path
         d="m 882.7,638.6 c 0,-0.4 0,-0.7 0,-1.1 0,-22.1 -17.6,-40 -39.2,-40 -21.6,0 -39.2,17.9 -39.2,40 0,0.4 0,0.8 0,1.2 l 0.2,6.9 h -0.7 V 820 c 0,29.2 -23.5,52.9 -52.3,52.9 H 621.9 v 0.2 l -7.1,-0.2 c -0.3,0 -0.6,0 -0.8,0 -21.6,0 -39.2,17.9 -39.2,40 0,22.1 17.6,40 39.2,40 0.3,0 0.6,0 0.9,0 l 7,-0.2 V 953 H 774.7 C 834.4,953 883,903.8 883,843.3 V 645.6 h -0.5 z"
         id="path6655"
         style="fill:#ffffff" />
      <path
         d="m 977.3,488 -4.8,-4.5 0.4,-0.4 L 576.1,79.2 C 555.8,58.5 528.7,47.1 500,47.1 c -28.7,0 -55.8,11.4 -76.1,32.1 l -397.5,404.6 0.3,0.3 -4.6,4.5 c -7.8,7.6 -12.1,17.9 -12.1,28.9 0,22.1 17.6,40 39.2,40 11.9,0 23.1,-5.5 30.5,-15 l 0.5,-0.5 35.3,-36 v 132 c 0,0.1 0,0.3 0,0.4 l 0.2,7.1 h -0.2 v 197.6 c 0,60.5 48.6,109.7 108.3,109.7 h 160.8 1 c 21.5,-0.6 38.3,-17.9 38.3,-39.4 v -190 H 614 c 21.7,0 39.4,-17.7 39.4,-39.4 0,-21.7 -17.7,-39.4 -39.4,-39.4 H 384.5 c -21.7,0 -39.4,17.7 -39.4,39.4 V 873 H 247 c -28.9,0 -52.3,-23.7 -52.3,-52.9 L 194.8,431 463.1,152.4 c 9.9,-10.1 23,-15.6 36.9,-15.6 13.9,0 27,5.5 36.9,15.5 l 383.2,390 0.2,0.3 c 7.5,9.5 18.6,15 30.6,15 21.6,0 39.2,-17.9 39.2,-40 -0.1,-11.3 -4.7,-22 -12.8,-29.6 z"
         id="path6657"
         style="fill:#ffffff" />
    </g>
    <text
       xml:space="preserve"
       style="font-style:normal;font-weight:normal;font-size:10.5833px;line-height:1.25;font-family:sans-serif;fill:#000000;fill-opacity:1;stroke:none;stroke-width:0.264583"
       x="-196.89877"
       y="128.84315"
       id="text9626"><tspan
         sodipodi:role="line"
         id="tspan9624"
         style="font-style:normal;font-variant:normal;font-weight:normal;font-stretch:normal;font-family:'ONE DAY';-inkscape-font-specification:'ONE DAY';stroke-width:0.264583"
         x="-196.89877"
         y="128.84315" /></text>
    <text
       xml:space="preserve"
       style="font-size:42.3333px;line-height:1.35;font-family:'ONE DAY';-inkscape-font-specification:'ONE DAY';letter-spacing:0.79375px;stroke-width:0.264583"
       x="-116.28919"
       y="246.78419"
       id="text2748"
       inkscape:export-filename="S:\Descargas\logo_completo.png"
       inkscape:export-xdpi="96"
       inkscape:export-ydpi="96"><tspan
         sodipodi:role="line"
         id="tspan2746"
         style="font-size:42.3333px;stroke-width:0.264583"
         x="-116.28919"
         y="246.78419">bionica automations</tspan></text>
  </g>
</svg>
